<svg width="117" height="118" viewBox="0 0 117 118" fill="none" xmlns="http://www.w3.org/2000/svg">
<path fill-rule="evenodd" clip-rule="evenodd" d="M15.4875 61.4375C16.13 61.7442 16.9976 62.0703 18.1021 62.4012C20.5875 63.1459 24.0025 63.8357 28.1306 64.4219C36.3697 65.5919 47.183 66.3125 58.5 66.3125C69.817 66.3125 80.6303 65.5919 88.8694 64.4219C92.9974 63.8357 96.4124 63.1459 98.8979 62.4013C100.002 62.0703 100.87 61.7442 101.512 61.4375C101.154 61.2667 100.708 61.0812 100.164 60.8865C97.9288 60.0881 94.5873 59.3284 90.3702 58.6756C81.9726 57.3758 70.5232 56.5625 58.5 56.5625C46.4768 56.5625 35.0274 57.3758 26.6298 58.6756C22.4127 59.3284 19.0712 60.0881 16.8364 60.8865C16.2916 61.0812 15.8456 61.2667 15.4875 61.4375ZM10.1762 63.1395C9.92182 62.6519 9.75 62.0783 9.75 61.4375C9.75 59.7464 10.8919 58.6198 11.745 57.9961C12.671 57.3191 13.8799 56.766 15.1962 56.2957C17.8588 55.3445 21.552 54.5285 25.8841 53.858C34.5849 52.5112 46.2917 51.6875 58.5 51.6875C70.7083 51.6875 82.4151 52.5112 91.1159 53.858C95.448 54.5285 99.1412 55.3445 101.804 56.2957C103.12 56.766 104.329 57.3191 105.255 57.9961C106.108 58.6198 107.25 59.7464 107.25 61.4375C107.25 62.0783 107.078 62.6519 106.824 63.1395C104.897 68.7423 93.1915 98 58.5 98C23.8085 98 12.1028 68.7422 10.1762 63.1395Z" fill="#22202A"/>
<path fill-rule="evenodd" clip-rule="evenodd" d="M34.7244 20.8366C35.6086 19.8215 37.1483 19.7153 38.1634 20.5995C39.1357 21.4463 39.9369 22.3768 40.5051 23.5131C41.0733 24.6495 41.3369 25.8487 41.431 27.1347C41.6547 30.1921 39.4174 31.9152 38.2987 32.7768C38.2473 32.8164 38.1983 32.8542 38.1519 32.8902C36.6764 34.0366 36.5625 34.2983 36.5625 34.625C36.5625 35.9273 36.8819 36.9402 37.4026 37.7212C37.9233 38.5023 38.7354 39.1867 39.9375 39.6875C41.1801 40.2053 41.7678 41.6324 41.25 42.875C40.7322 44.1177 39.3051 44.7053 38.0625 44.1875C36.0965 43.3684 34.4711 42.1126 33.3463 40.4254C32.2216 38.7382 31.6875 36.7549 31.6875 34.625C31.6875 31.6999 33.8603 30.0368 34.9689 29.1883C35.0372 29.136 35.1015 29.0868 35.1609 29.0405C36.6006 27.922 36.5856 27.7171 36.5692 27.4931L36.569 27.4904C36.5078 26.6536 36.3552 26.1142 36.1447 25.6933C35.9343 25.2724 35.5943 24.8267 34.9616 24.2756C33.9465 23.3915 33.8403 21.8518 34.7244 20.8366Z" fill="#22202A"/>
<path fill-rule="evenodd" clip-rule="evenodd" d="M56.6619 20.8366C57.5461 19.8215 59.0858 19.7153 60.1009 20.5995C61.0732 21.4463 61.8744 22.3768 62.4426 23.5131C63.0108 24.6495 63.2744 25.8487 63.3685 27.1347C63.5922 30.1921 61.3549 31.9152 60.2362 32.7768C60.1848 32.8164 60.1358 32.8542 60.0894 32.8902C58.6139 34.0366 58.5 34.2983 58.5 34.625C58.5 35.9273 58.8194 36.9402 59.3401 37.7212C59.8608 38.5023 60.6729 39.1867 61.875 39.6875C63.1176 40.2053 63.7053 41.6324 63.1875 42.875C62.6697 44.1177 61.2426 44.7053 60 44.1875C58.034 43.3684 56.4086 42.1126 55.2838 40.4254C54.1591 38.7382 53.625 36.7549 53.625 34.625C53.625 31.6999 55.7978 30.0368 56.9064 29.1883C56.9747 29.136 57.039 29.0868 57.0984 29.0405C58.5381 27.922 58.5231 27.7171 58.5067 27.4931L58.5065 27.4904C58.4453 26.6536 58.2927 26.1142 58.0822 25.6933C57.8718 25.2724 57.5318 24.8267 56.8991 24.2756C55.884 23.3915 55.7778 21.8518 56.6619 20.8366Z" fill="#22202A"/>
<path fill-rule="evenodd" clip-rule="evenodd" d="M78.5994 20.8366C79.4836 19.8215 81.0233 19.7153 82.0384 20.5995C83.0107 21.4463 83.8119 22.3768 84.3801 23.5131C84.9483 24.6495 85.2119 25.8487 85.306 27.1347C85.5297 30.1921 83.2924 31.9152 82.1737 32.7768C82.1223 32.8164 82.0733 32.8542 82.0269 32.8902C80.5514 34.0366 80.4375 34.2983 80.4375 34.625C80.4375 35.9273 80.7569 36.9402 81.2776 37.7212C81.7983 38.5023 82.6104 39.1867 83.8125 39.6875C85.0551 40.2053 85.6428 41.6324 85.125 42.875C84.6072 44.1177 83.1801 44.7053 81.9375 44.1875C79.9715 43.3684 78.3461 42.1126 77.2213 40.4254C76.0966 38.7382 75.5625 36.7549 75.5625 34.625C75.5625 31.6999 77.7353 30.0368 78.8439 29.1883C78.9122 29.136 78.9765 29.0868 79.0359 29.0405C80.4756 27.922 80.4606 27.7171 80.4442 27.4931L80.444 27.4904C80.3828 26.6536 80.2302 26.1142 80.0197 25.6933C79.8093 25.2724 79.4693 24.8267 78.8366 24.2756C77.8215 23.3915 77.7153 21.8518 78.5994 20.8366Z" fill="#22202A"/>
</svg>
