<svg width="80" height="80" viewBox="0 0 80 80" fill="none" xmlns="http://www.w3.org/2000/svg">
<path d="M51.1711 61.2158C49.6744 62.6199 47.3291 62.5428 45.9404 61.0461C44.7986 59.8271 42.8391 58.5156 40 58.5156C37.1609 58.5156 35.2014 59.8271 34.0596 61.0461C32.6709 62.5428 30.3256 62.6199 28.8289 61.2158C27.3322 59.8271 27.2551 57.4818 28.6592 55.9852C30.8502 53.6244 34.6613 51.1094 40 51.1094C45.3387 51.1094 49.1498 53.6244 51.3408 55.9852C52.7449 57.4818 52.6678 59.8271 51.1711 61.2158ZM22.7805 37.5312C22.7805 36.1734 23.3205 34.9391 24.2154 34.0441L19.4631 32.4703C18.1824 32.0383 17.4727 30.6342 17.9047 29.3381C18.3367 28.0574 19.7408 27.3477 21.0369 27.7797L35.8494 32.7172C37.1301 33.1492 37.701 34.5533 37.4078 35.8494C36.9758 37.1301 35.5717 37.701 34.2756 37.4078L32.6092 36.8523C32.64 37.0684 32.6555 37.2998 32.6555 37.5312C32.6555 40.2623 30.4336 42.4688 27.718 42.4688C24.9869 42.4688 22.7805 40.2623 22.7805 37.5312ZM57.343 37.5312C57.343 40.2623 55.1211 42.4688 52.4055 42.4688C49.6744 42.4688 47.468 40.2623 47.468 37.5312C47.468 37.2844 47.4834 37.0375 47.5143 36.8061L45.7244 37.4078C44.4283 37.701 43.0242 37.1301 42.5922 35.8494C42.1602 34.5533 42.8699 33.1492 44.1506 32.7172L58.9631 27.7797C60.2592 27.3477 61.6633 28.0574 62.0953 29.3381C62.3885 30.6342 61.8176 32.0383 60.5369 32.4703L55.8771 34.0133C56.7721 34.9082 57.343 36.158 57.343 37.5312ZM0.5 40C0.5 18.1824 18.1824 0.5 40 0.5C61.8176 0.5 79.5 18.1824 79.5 40C79.5 61.8176 61.8176 79.5 40 79.5C18.1824 79.5 0.5 61.8176 0.5 40ZM40 72.0938C57.7287 72.0938 72.0938 57.7287 72.0938 40C72.0938 22.2713 57.7287 7.90625 40 7.90625C22.2713 7.90625 7.90625 22.2713 7.90625 40C7.90625 57.7287 22.2713 72.0938 40 72.0938Z" fill="black"/>
</svg>
