<svg width="105" height="100" viewBox="0 0 105 100" fill="none" xmlns="http://www.w3.org/2000/svg">
<path d="M12.1976 87.5389C17.5534 87.5389 21.8952 83.2175 21.8952 77.8867C21.8952 72.556 17.5534 68.2345 12.1976 68.2345C6.84175 68.2345 2.5 72.556 2.5 77.8867C2.5 83.2175 6.84175 87.5389 12.1976 87.5389Z" stroke="black" stroke-width="4" stroke-miterlimit="10" stroke-linecap="round"/>
<path d="M7.68311 88.371H98.6957C100.981 88.371 102.82 90.2016 102.82 92.476V93.1416C102.82 95.416 100.981 97.2466 98.6957 97.2466H7.68311C5.39805 97.2466 3.55884 95.416 3.55884 93.1416V92.476C3.55884 90.2571 5.39805 88.371 7.68311 88.371Z" stroke="black" stroke-width="4" stroke-miterlimit="10" stroke-linecap="round"/>
<path d="M41.7366 77.2765H64.7544C67.6526 77.2765 70.0491 79.7173 70.0491 82.7128C70.0491 85.7083 67.7083 88.1491 64.7544 88.1491H37.3337C31.7603 88.1491 27.1902 83.4339 27.1902 77.6648C27.1902 71.8957 31.7046 67.1806 37.3337 67.1806H94.2931C99.0305 67.1806 102.82 71.1191 102.82 76.0007V79.1071C102.82 84.1551 98.6961 88.3155 93.5686 88.3155" stroke="black" stroke-width="4" stroke-miterlimit="10" stroke-linecap="round"/>
<path d="M55.5582 47.6545L50.8766 52.3142C50.0964 53.0908 49.9849 54.3112 50.598 55.1988L54.555 60.9124C54.8337 61.3007 54.9452 61.7445 54.9452 62.1883V67.2363" stroke="black" stroke-width="4" stroke-miterlimit="10" stroke-linecap="round"/>
<path d="M76.4583 47.6545L81.1399 52.3142C81.9201 53.0908 82.0316 54.3112 81.4185 55.1988L77.4615 60.9124C77.1828 61.3007 77.0713 61.7445 77.0713 62.1883V67.2363" stroke="black" stroke-width="4" stroke-miterlimit="10" stroke-linecap="round"/>
<path d="M87.9947 67.236V64.4624C87.9947 63.7968 88.2176 63.1311 88.552 62.5764L93.8467 54.6438C95.0728 52.8133 94.7942 50.3725 93.2894 48.8192L81.028 36.338C80.1363 35.4504 78.9659 34.9512 77.684 34.9512H64.3638" stroke="black" stroke-width="4" stroke-miterlimit="10" stroke-linecap="round"/>
<path d="M44.1328 67.236V64.4624C44.1328 63.7967 43.9098 63.131 43.5754 62.5763L38.2808 54.5883C37.0546 52.7577 37.3333 50.317 38.8381 48.7637L51.0995 36.2825C51.9912 35.3949 53.1616 34.8957 54.4434 34.8957H67.7637" stroke="black" stroke-width="4" stroke-miterlimit="10" stroke-linecap="round"/>
<path d="M58.1218 14.8148V7.21514C58.1218 4.60794 60.2397 2.5 62.8592 2.5H70.4946C73.1141 2.5 75.232 4.60794 75.232 7.21514V14.8148" stroke="black" stroke-width="4" stroke-miterlimit="10" stroke-linecap="round"/>
<path d="M66.7049 29.0157C72.0608 29.0157 76.4025 24.6943 76.4025 19.3635C76.4025 14.0328 72.0608 9.71136 66.7049 9.71136C61.3491 9.71136 57.0073 14.0328 57.0073 19.3635C57.0073 24.6943 61.3491 29.0157 66.7049 29.0157Z" stroke="black" stroke-width="4" stroke-miterlimit="10" stroke-linecap="round"/>
<path d="M58.3443 21.5825H75.0643C75.5659 21.5825 75.9003 22.1372 75.6217 22.5255L73.7267 26.0203L69.9926 28.4611H63.4718L59.2361 25.521L57.7313 22.5255C57.5083 22.0817 57.8427 21.5825 58.3443 21.5825Z" fill="black"/>
</svg>
